P3
2 3
255
0 0 0 255 0 0
0 255 0 0 0 255
128 128 128 255 255 255